<svg width="23" height="25" viewBox="0 0 23 25" fill="none" xmlns="http://www.w3.org/2000/svg">
<g clip-path="url(#clip0_16_141)">
<path d="M11.5204 1.5947C11.8275 1.16422 12.4476 1.13696 12.7938 1.51364L12.8593 1.5947L18.5848 9.62204C21.1463 13.2117 20.2308 18.1819 16.6044 20.6445L16.4071 20.7734L16.2059 20.8974C15.213 21.4871 14.122 21.8406 13.0116 21.957V24.1797C13.0116 24.6323 12.6438 24.9997 12.1903 25C11.769 25 11.4214 24.6831 11.3739 24.2754L11.368 24.1797V21.957C10.2575 21.8406 9.1659 21.4872 8.17273 20.8974C4.29778 18.5946 3.17047 13.5307 5.65906 9.81638L5.79382 9.62204L11.5204 1.5947ZM21.0516 18.3271C21.1429 17.8838 21.5771 17.5986 22.0214 17.6894C22.4658 17.7804 22.7522 18.2136 22.661 18.6572C22.4708 19.5826 22.0347 20.3783 21.4315 21.0459C20.939 21.5909 20.4434 21.9482 20.0848 22.1377C19.6838 22.3495 19.1858 22.197 18.9735 21.7968C18.7765 21.4254 18.8946 20.9709 19.2333 20.7383L19.4364 20.6142L19.5692 20.5234C19.7873 20.3662 20.0066 20.1732 20.2108 19.9472C20.6288 19.4847 20.9244 18.9462 21.0516 18.3271ZM12.1903 8.39841C11.769 8.39841 11.4214 8.71528 11.3739 9.12302L11.368 9.21775V12.3242L10.121 11.0517L10.0438 10.9824C9.72432 10.729 9.2582 10.7468 8.95886 11.039C8.65963 11.3313 8.6318 11.7958 8.87879 12.1201L8.94617 12.1982L11.3085 14.6074L11.368 14.6621V18.4414L11.3739 18.5371C11.4214 18.9447 11.769 19.2607 12.1903 19.2607C12.579 19.2605 12.905 18.9909 12.9901 18.6289L13.0057 18.5371L13.0106 18.456L15.7831 15.4804L15.8485 15.4013C16.0872 15.0709 16.0478 14.6068 15.7411 14.3222C15.4345 14.0378 14.9681 14.0317 14.6552 14.2929L14.58 14.3642L13.0106 16.0478L13.0116 9.21775L13.0057 9.12302C12.9583 8.71543 12.6114 8.39864 12.1903 8.39841ZM3.30066 7.09372C3.6283 6.7805 4.14889 6.79216 4.46277 7.11911C4.75213 7.42091 4.76498 7.88608 4.50769 8.20212L4.31531 8.40915L4.18445 8.5654C3.97012 8.83096 3.75368 9.14828 3.55066 9.51462C3.26389 10.0321 3.02925 10.6025 2.86609 11.2236C2.75105 11.6616 2.30207 11.9234 1.86316 11.8086C1.42453 11.6937 1.16242 11.2464 1.27722 10.8086C1.47622 10.0509 1.76237 9.35368 2.11316 8.72068C2.5455 7.9406 2.98525 7.39526 3.30066 7.09372Z" fill="currentColor"/>
</g>
<defs>
<clipPath id="clip0_16_141">
<rect width="25" height="25" fill="white"/>
</clipPath>
</defs>
</svg>
