<svg width="25" height="21" viewBox="0 0 25 21" fill="none" xmlns="http://www.w3.org/2000/svg">
<path d="M23.468 10.6519C23.9144 10.6519 24.2775 11.0169 24.2776 11.4673C24.2776 11.9168 23.9144 12.2808 23.468 12.2808H22.3391V16.1656C22.3389 18.5175 20.4398 20.4283 18.1057 20.4283H16.4124C15.965 20.4281 15.6028 20.0633 15.6028 19.6129C15.6029 19.1636 15.9651 18.7985 16.4124 18.7984H18.1057C19.548 18.7984 20.7218 17.6186 20.7219 16.1656V12.2808H17.9338V13.3629C17.9444 14.7165 16.8653 15.8227 15.5208 15.8355H9.64966C8.30618 15.8227 7.22701 14.7165 7.23755 13.3629V12.2808H4.44946V16.1695C4.44946 17.6173 5.61972 18.7953 7.05786 18.7974L8.78833 18.7984C9.23463 18.7984 9.59677 19.1636 9.59692 19.6129C9.59586 20.0633 9.23477 20.4282 8.78735 20.4283L7.05591 20.4273C4.72704 20.4252 2.83032 18.5152 2.83032 16.1695V12.2808H1.70239C1.25615 12.2806 0.892822 11.9167 0.892822 11.4673C0.892924 11.0171 1.25621 10.6521 1.70239 10.6519H23.468ZM15.5208 4.86969C16.1638 4.86969 16.7821 5.12997 17.2317 5.59332C17.6844 6.06095 17.9349 6.68953 17.9338 7.34332V8.70172C17.9285 8.86117 17.8022 8.99139 17.6438 8.99567H7.52466C7.36742 8.99023 7.24074 8.86004 7.23755 8.70172V7.34332C7.22586 5.98965 8.30612 4.8836 9.64966 4.86969H15.5208ZM8.78735 0.785706C9.23378 0.785706 9.59692 1.15062 9.59692 1.60114C9.59692 2.05057 9.23484 2.41559 8.78735 2.41559L7.05591 2.41656C5.61905 2.41888 4.44958 3.59686 4.44946 5.04449V7.07379C4.44937 7.52315 4.08626 7.88922 3.63989 7.88922C3.19357 7.88917 2.83139 7.52312 2.8313 7.07379V5.04449C2.83141 2.69901 4.72624 0.788954 7.05493 0.786682L8.78638 0.785706H8.78735ZM18.1047 0.785706C20.44 0.785706 22.3391 2.69739 22.3391 5.0484V7.07379C22.3391 7.52323 21.977 7.88922 21.5295 7.88922C21.0833 7.88899 20.7209 7.52309 20.7209 7.07379V5.0484C20.7209 3.59627 19.5471 2.41461 18.1047 2.41461H16.4124C15.9659 2.41461 15.6028 2.05058 15.6028 1.60114C15.6029 1.15075 15.966 0.785706 16.4124 0.785706H18.1047Z" fill="currentColor"/>
</svg>
